<svg viewBox="0 0 1920 970" fill="none" xmlns="http://www.w3.org/2000/svg">
<path d="M1920 970H850L1071 0H1920V970Z" fill="#C9E1EE"/>
<path d="M0 0H1071L850 970H0V0Z" fill="#EEDEE1"/>
<path d="M1074 46H1060V38H1076L1074 46Z" fill="#EEDEE1"/>
<path d="M1000 368H986V360H1002L1000 368Z" fill="#EEDEE1"/>
<path d="M927 690H913V682H929L927 690Z" fill="#EEDEE1"/>
<path d="M1064 92H1050V84H1066L1064 92Z" fill="#EEDEE1"/>
<path d="M990 414H976V406H992L990 414Z" fill="#EEDEE1"/>
<path d="M917 736H903V728H919L917 736Z" fill="#EEDEE1"/>
<path d="M1053 138H1039V130H1055L1053 138Z" fill="#EEDEE1"/>
<path d="M979 460H965V452H981L979 460Z" fill="#EEDEE1"/>
<path d="M906 782H892V774H908L906 782Z" fill="#EEDEE1"/>
<path d="M1043 184H1029V176H1045L1043 184Z" fill="#EEDEE1"/>
<path d="M969 506H955V498H971L969 506Z" fill="#EEDEE1"/>
<path d="M896 828H882V820H898L896 828Z" fill="#EEDEE1"/>
<path d="M1032 230H1018V222H1034L1032 230Z" fill="#EEDEE1"/>
<path d="M958 552H944V544H960L958 552Z" fill="#EEDEE1"/>
<path d="M885 874H871V866H887L885 874Z" fill="#EEDEE1"/>
<path d="M1022 276H1008V268H1024L1022 276Z" fill="#EEDEE1"/>
<path d="M948 598H934V590H950L948 598Z" fill="#EEDEE1"/>
<path d="M875 920H861V912H877L875 920Z" fill="#EEDEE1"/>
<path d="M1011 322H997V314H1013L1011 322Z" fill="#EEDEE1"/>
<path d="M937 644H923V636H939L937 644Z" fill="#EEDEE1"/>
<path d="M864 966H850V958H866L864 966Z" fill="#EEDEE1"/>
<g clip-path="url(#clip0_51_4)">
<path d="M844 934H858V942H842L844 934Z" fill="#C9E1EE"/>
<path d="M855 888H869V896H853L855 888Z" fill="#C9E1EE"/>
<path d="M929 566H943V574H927L929 566Z" fill="#C9E1EE"/>
<path d="M1002 244H1016V252H1000L1002 244Z" fill="#C9E1EE"/>
<path d="M865 842H879V850H863L865 842Z" fill="#C9E1EE"/>
<path d="M939 520H953V528H937L939 520Z" fill="#C9E1EE"/>
<path d="M1012 198H1026V206H1010L1012 198Z" fill="#C9E1EE"/>
<path d="M876 796H890V804H874L876 796Z" fill="#C9E1EE"/>
<path d="M950 474H964V482H948L950 474Z" fill="#C9E1EE"/>
<path d="M1023 152H1037V160H1021L1023 152Z" fill="#C9E1EE"/>
<path d="M886 750H900V758H884L886 750Z" fill="#C9E1EE"/>
<path d="M960 428H974V436H958L960 428Z" fill="#C9E1EE"/>
<path d="M1033 106H1047V114H1031L1033 106Z" fill="#C9E1EE"/>
<path d="M897 704H911V712H895L897 704Z" fill="#C9E1EE"/>
<path d="M971 382H985V390H969L971 382Z" fill="#C9E1EE"/>
<path d="M1044 60H1058V68H1042L1044 60Z" fill="#C9E1EE"/>
<path d="M907 658H921V666H905L907 658Z" fill="#C9E1EE"/>
<path d="M981 336H995V344H979L981 336Z" fill="#C9E1EE"/>
<path d="M1054 14H1068V22H1052L1054 14Z" fill="#C9E1EE"/>
<path d="M918 612H932V620H916L918 612Z" fill="#C9E1EE"/>
<path d="M992 290H1006V298H990L992 290Z" fill="#C9E1EE"/>
</g>
<defs>
<clipPath id="clip0_51_4">
<rect width="237" height="970" fill="white" transform="matrix(1 0 0 -1 842 970)"/>
</clipPath>
</defs>
</svg>
