<svg width="49" height="49" viewBox="0 0 49 49" fill="none" xmlns="http://www.w3.org/2000/svg">
<g clip-path="url(#clip0_24_83)">
<path d="M41.4816 8.9027C38.3043 7.44454 34.9516 6.40383 31.507 5.80651C31.4758 5.80125 31.4438 5.80579 31.4152 5.8195C31.3867 5.83321 31.3632 5.85542 31.3478 5.88307C30.916 6.6487 30.4382 7.65013 30.1044 8.43413C26.3914 7.87066 22.6147 7.87066 18.9018 8.43413C18.5294 7.56077 18.1082 6.70907 17.64 5.88307C17.6243 5.85572 17.6007 5.83377 17.5723 5.82011C17.5438 5.80644 17.5119 5.8017 17.4808 5.80651C14.0355 6.40063 10.682 7.44188 7.50622 8.9027C7.47904 8.91307 7.45631 8.93255 7.4419 8.95782C1.09028 18.4485 -0.652284 27.7064 0.202154 36.848C0.205216 36.8909 0.232779 36.9338 0.266466 36.9613C3.96512 39.7011 8.10215 41.7929 12.5012 43.1476C12.5322 43.1574 12.5656 43.157 12.5964 43.1466C12.6273 43.1361 12.654 43.1161 12.6727 43.0894C13.6159 41.8031 14.455 40.4464 15.1778 39.0193C15.1928 38.9899 15.198 38.9565 15.1925 38.9239C15.187 38.8913 15.1711 38.8614 15.1472 38.8386C15.1313 38.8237 15.1125 38.8122 15.092 38.8049C13.7726 38.2979 12.4947 37.6886 11.27 36.9828C11.2358 36.9634 11.2104 36.9316 11.199 36.8939C11.1876 36.8563 11.1911 36.8157 11.2088 36.7806C11.2192 36.7578 11.235 36.7379 11.2547 36.7224C11.512 36.5295 11.7692 36.3274 12.0142 36.1253C12.0359 36.1079 12.0618 36.0967 12.0893 36.0929C12.1169 36.0891 12.1449 36.0929 12.1704 36.1038C20.1911 39.7666 28.8733 39.7666 36.796 36.1038C36.8224 36.0924 36.8515 36.0883 36.8801 36.0921C36.9087 36.0959 36.9357 36.1073 36.9583 36.1253C37.2033 36.3274 37.4605 36.5295 37.7178 36.7224C37.7386 36.7377 37.7554 36.7578 37.7665 36.7811C37.7777 36.8044 37.7829 36.8301 37.7816 36.8559C37.7804 36.8817 37.7728 36.9068 37.7596 36.9289C37.7463 36.9511 37.7277 36.9696 37.7055 36.9828C36.4836 37.6951 35.2041 38.3036 33.8805 38.8019C33.8593 38.8095 33.8402 38.8217 33.8243 38.8376C33.8084 38.8535 33.7962 38.8726 33.7886 38.8938C33.7815 38.9142 33.7787 38.9359 33.7802 38.9575C33.7818 38.9791 33.7878 39.0001 33.7978 39.0193C34.5328 40.4434 35.375 41.8031 36.2998 43.0894C36.3185 43.1161 36.3452 43.1361 36.3761 43.1466C36.4069 43.157 36.4403 43.1574 36.4713 43.1476C40.8777 41.7971 45.0214 39.705 48.7244 36.9613C48.7429 36.9485 48.7584 36.9316 48.7695 36.912C48.7806 36.8924 48.7872 36.8705 48.7887 36.848C49.8116 26.2793 47.0768 17.0979 41.5428 8.96089C41.5373 8.94744 41.5289 8.93532 41.5184 8.9253C41.5078 8.91528 41.4953 8.90758 41.4816 8.9027ZM16.3752 31.2804C13.9589 31.2804 11.9713 29.0631 11.9713 26.3436C11.9713 23.6211 13.9222 21.4038 16.3752 21.4038C18.8467 21.4038 20.8158 23.6394 20.7791 26.3436C20.7791 29.0631 18.8283 31.2804 16.3752 31.2804ZM32.6555 31.2804C30.2422 31.2804 28.2516 29.0631 28.2516 26.3436C28.2516 23.6211 30.2024 21.4038 32.6555 21.4038C35.1269 21.4038 37.0992 23.6394 37.0593 26.3436C37.0593 29.0631 35.1269 31.2804 32.6555 31.2804Z" fill="#7289DA"/>
</g>
<defs>
<clipPath id="clip0_24_83">
<rect width="49" height="49" fill="white"/>
</clipPath>
</defs>
</svg>
